<svg width="1294" height="2157" xmlns="http://www.w3.org/2000/svg" xmlns:xlink="http://www.w3.org/1999/xlink" xml:space="preserve" overflow="hidden"><defs><clipPath id="clip0"><rect x="89" y="122" width="1294" height="2157"/></clipPath></defs><g clip-path="url(#clip0)" transform="translate(-89 -122)"><path d="M737.667 2166C691.361 1938.78 609.73 1749.69 510.851 1574.44 437.508 1444.45 352.544 1324.47 273.93 1198.4 247.687 1156.33 225.039 1111.86 199.822 1068.2 149.401 980.869 108.52 879.62 111.117 748.282 113.655 619.96 150.78 517.023 204.315 432.861 292.363 294.434 439.847 180.939 637.734 151.113 799.536 126.727 951.233 167.927 1058.8 230.81 1146.7 282.198 1214.78 350.84 1266.52 431.737 1320.53 516.172 1357.73 615.924 1360.84 746.037 1362.45 812.698 1351.53 874.43 1336.14 925.636 1320.58 977.467 1295.55 1020.8 1273.27 1067.08 1229.79 1157.41 1175.27 1240.18 1120.56 1323 957.599 1569.69 804.647 1821.27 737.667 2166Z" stroke="#000000" stroke-width="44.1389" stroke-miterlimit="8" fill="#19367D" fill-rule="evenodd"/><path d="M962 709.5C962 830.175 863.951 928 743 928 622.05 928 524 830.175 524 709.5 524 588.826 622.05 491 743 491 863.951 491 962 588.826 962 709.5Z" fill-rule="evenodd"/></g></svg>